<?xml version="1.0" encoding="UTF-8" standalone="no"?>
<!-- Created with Inkscape (http://www.inkscape.org/) by Toomai Glittershine for SmashWiki -->
<svg id="svg2" xmlns:rdf="http://www.w3.org/1999/02/22-rdf-syntax-ns#" xmlns="http://www.w3.org/2000/svg" version="1.1" xmlns:cc="http://creativecommons.org/ns#" xmlns:dc="http://purl.org/dc/elements/1.1/"
		height="256" width="256"
		viewBox="0 0 256 256">
	<metadata id="metadata7">
		<rdf:RDF>
			<cc:Work rdf:about="">
				<dc:format>image/svg+xml</dc:format>
				<dc:type rdf:resource="http://purl.org/dc/dcmitype/StillImage"/>
				<dc:title/>
			</cc:Work>
		</rdf:RDF>
	</metadata>
	<path id="mainsymbolpath" style="opacity:0.5;fill:#000000;fill-opacity:1;stroke:none"
		d="m 198.40597,79.359099 c 3.25942,3.96416 5.23049,28.861281 3.74393,32.274861 -1.98208,4.59182 -47.37171,104.10324 -49.04546,107.28557 -1.05711,2.00411 -8.39081,7.9063 -10.84638,8.48991 -2.32344,0.53957 -70.13259,-35.29203 -72.169727,-37.24107 -2.257369,-2.15827 -3.732917,-13.27994 -3.072224,-15.85664 0.605636,-2.35647 14.370078,-26.55987 14.370078,-26.55987 0,0 -21.769842,-53.890544 -22.46357,-57.105918 -0.78182,-3.578755 3.369536,-29.345791 7.730111,-33.970644 2.389507,-2.521646 14.601321,-3.391558 14.601321,-3.391558 0,0 7.069417,-8.203608 10.031525,-10.372884 2.037138,-1.508583 30.975506,-11.793375 34.983706,-11.429993 3.30347,0.2863 14.46918,10.648172 15.46022,11.639212 0,0 11.11066,-0.330346 13.1478,0.935982 2.70884,1.684768 9.08453,10.989531 9.08453,10.989531 0,0 12.01361,2.719854 14.62334,5.208465 2.1913,2.081184 5.77006,11.011554 5.77006,11.011554 0,0 11.57314,5.076327 14.05074,8.093492 z m -48.8913,14.799529 c -2.53266,-2.41153 -5.57184,-3.556732 -8.3908,-2.730865 -0.58361,0.14315 -1.13419,0.352369 -1.67376,0.627658 -0.52855,0.264277 -1.03508,0.594624 -1.48656,0.980028 -0.46248,0.385405 -0.86991,0.814855 -1.23329,1.288352 -0.36338,0.473497 -0.67171,0.99104 -0.91396,1.530606 -2.0041,4.305513 -0.30832,9.756233 3.47965,12.399013 3.34751,2.34546 7.82921,2.0041 10.96751,-1.32139 3.27043,-3.47965 2.88502,-9.282739 -0.74879,-12.773402 z M 133.66905,74.447946 c 0.0771,0.06607 0.64968,0.451474 0.75979,0.528555 3.20437,2.103207 6.78312,1.42049 9.78927,-1.77286 3.28145,-3.490663 2.87402,-9.547018 -0.50653,-12.795426 -2.5767,-2.488611 -5.64892,-3.699882 -8.51193,-2.818958 -0.51754,0.154162 -1.02407,0.363381 -1.49757,0.616647 -0.4735,0.264277 -0.92497,0.572601 -1.3324,0.935982 -0.40743,0.35237 -0.78182,0.759797 -1.10115,1.20026 -0.31934,0.440462 -0.58362,0.913959 -0.80385,1.409479 -2.0041,4.294506 -0.41844,9.822306 3.20437,12.696321 z M 87.024103,57.313968 94.611064,70.880203 c -0.858901,-2.97312 -1.409479,-10.956496 -1.596676,-12.872507 -0.06607,-0.726762 0.484509,-5.109361 1.05711,-7.928319 z M 88.907079,76.52913 80.075812,60.892723 c -3.017165,0.517543 -6.717047,1.233294 -7.245602,1.794884 -0.363381,0.385404 -2.323438,5.450719 -3.424593,10.196699 -1.046098,4.459679 -1.750837,9.062509 -2.114219,11.727305 2.885027,-2.213323 6.794129,-5.153408 8.456874,-6.08939 2.818958,-1.596675 9.866352,-2.026126 13.158807,-1.993091 z m -6.970314,95.4922 0.02202,-0.033 c -0.02202,0 -0.03303,-0.011 -0.03303,-0.011 z m 0.02202,-0.033 c 0.462485,0.14315 5.73702,1.69578 13.346004,4.61384 l 9.007451,-17.84973 c -1.09014,-0.39641 -2.18029,-0.77081 -3.28144,-1.13419 -1.101159,-0.35237 -2.202314,-0.69372 -3.314481,-1.02407 -1.112167,-0.31934 -2.224334,-0.61665 -3.347512,-0.90295 -1.112167,-0.2863 -2.246357,-0.56159 -3.369536,-0.80384 z m 64.913115,9.19465 c -1.25532,-0.92497 -2.53266,-1.82792 -3.81,-2.70884 -1.27734,-0.88093 -2.5767,-1.75084 -3.88708,-2.59873 -1.31037,-0.84789 -2.62075,-1.67376 -3.95315,-2.4776 -1.33239,-0.80384 -2.6758,-1.59667 -4.03022,-2.36748 -1.54162,-0.88093 -3.09425,-1.72882 -4.65789,-2.5657 -1.56364,-0.82586 -3.13829,-1.62971 -4.72396,-2.41153 -1.59667,-0.78182 -3.19335,-1.5306 -4.81205,-2.26838 -1.60768,-0.72676 -3.23739,-1.4315 -4.87812,-2.1032 l -9.20566,17.93782 c 1.76185,0.73777 3.51269,1.49757 5.25252,2.27939 1.75083,0.78182 3.47965,1.58566 5.19745,2.41153 1.7178,0.83688 3.43561,1.69578 5.13138,2.56569 1.69578,0.88093 3.36954,1.79489 5.0433,2.71986 6.18849,3.45762 11.42999,6.70603 15.58134,9.39285 z m 10.04254,8.48991 c -0.36339,-0.36338 -0.72677,-0.72677 -1.09015,-1.07913 -0.37439,-0.35237 -0.73777,-0.70474 -1.12318,-1.05711 -0.37439,-0.34136 -0.75979,-0.68272 -1.1452,-1.01307 -0.3854,-0.34136 -0.78182,-0.6717 -1.17823,-0.99104 l -7.69708,17.16702 c 3.27043,2.25736 5.0543,3.6228 5.0543,3.6228 z m -1.16723,-49.60705 c 3.25942,-3.46864 3.02818,-9.56904 -1.02407,-13.42309 -2.78593,-2.66479 -5.91321,-3.35852 -8.73217,-1.94904 -0.39641,0.17618 -0.78182,0.3854 -1.1452,0.62766 -0.36338,0.23124 -0.71575,0.50653 -1.03508,0.79283 -0.31934,0.29731 -0.61665,0.61664 -0.89194,0.958 -0.27529,0.34136 -0.51754,0.70474 -0.72676,1.09015 -2.34546,4.14034 -0.95801,9.4369 2.43355,12.59721 0.0991,0.0991 0.20922,0.1872 0.31934,0.2863 0.12112,0.0881 0.23124,0.17619 0.35237,0.26428 0.12112,0.0881 0.23124,0.17619 0.36338,0.25327 0.12113,0.0771 0.24225,0.15416 0.37439,0.22023 3.19335,2.07017 6.75008,1.44251 9.73421,-1.70679 z m 0.68272,-64.010167 c -1.92702,4.118321 -0.67171,9.513983 2.79693,12.354964 2.62075,2.12523 7.21257,2.499623 10.40592,-1.453525 3.53471,-4.382599 1.22228,-12.839472 -5.73702,-14.612333 -0.73777,-0.176184 -1.49757,-0.209219 -2.24636,-0.121127 -0.74878,0.08809 -1.47554,0.308324 -2.14725,0.638671 -0.68271,0.341358 -1.28835,0.792831 -1.8169,1.343409 -0.51755,0.550578 -0.93599,1.178236 -1.24431,1.871964 z m 19.03897,48.483877 c 3.22639,-3.43561 3.58977,-11.63922 -3.46863,-14.79953 -3.89809,-1.75084 -7.03639,0 -8.58902,2.25737 -2.5767,3.74392 -2.25737,9.46993 0.71575,12.75137 0.15417,0.17619 0.30833,0.33035 0.4735,0.48451 0.16517,0.15417 0.33035,0.29732 0.50653,0.42945 0.1872,0.13214 0.36338,0.26428 0.55058,0.38541 0.19821,0.11011 0.3854,0.22023 0.58361,0.33034 3.01717,1.73983 6.39772,1.21128 9.24971,-1.8169 z m 14.74448,-19.71069 c 3.03918,-3.23739 2.73086,-9.183632 -0.26428,-12.046636 -2.27939,-2.180288 -4.79003,-3.182339 -7.21257,-2.499623 -0.44046,0.110115 -0.8589,0.253266 -1.26633,0.451474 -0.39641,0.198208 -0.78182,0.42945 -1.13419,0.704739 -0.35237,0.275289 -0.6717,0.583612 -0.958,0.924971 -0.2863,0.352369 -0.53957,0.726762 -0.74879,1.123178 -2.10321,3.699882 -1.3324,9.029477 1.70679,11.848437 0.15416,0.13213 0.29731,0.25326 0.45148,0.3854 0.15416,0.12113 0.31933,0.23124 0.4845,0.34136 0.16518,0.11011 0.34136,0.20922 0.51755,0.29731 0.16517,0.0991 0.35237,0.17618 0.52855,0.25327 2.63176,1.36543 5.39566,0.89193 7.91731,-1.78388 z"
	/>
</svg>